<?xml version="1.0" encoding="utf-8"?>
<!-- Generator: Adobe Illustrator 29.5.0, SVG Export Plug-In . SVG Version: 9.03 Build 0)  -->
<svg version="1.0" id="Layer_1" xmlns:svg="http://www.w3.org/2000/svg"
	 xmlns="http://www.w3.org/2000/svg" xmlns:xlink="http://www.w3.org/1999/xlink" x="0px" y="0px" viewBox="0 0 400 400"
	 style="enable-background:new 0 0 400 400;" xml:space="preserve">
<style type="text/css">
	.st0{fill:none;}
	.st1{fill:none;stroke:#000000;stroke-width:1.8;stroke-linecap:round;}
</style>
<path class="st0" d="z"/>
<path class="st1" d="M164.33,185.41c-1.31,2.33-1.02,5.55-0.87,7.31c0.15,1.76,0.29,8.6,0.48,8.59 M215.28,299.31
	c3.52,0.41,6.63-0.41,8.08-1.45 M103.16,209.57c-3.51,2.34-7.76,8.05-8.2,9.66 M84.28,186c-0.15,2.05-2.49,8.78-4.98,11.57
	c-2.49,2.78-4.25,4.68-6.3,5.56 M58.36,171.94c3.37-1.02,16.54,4.83,22.55,9.96 M207.4,156.57c-2.49,5.42-10.39,23.86-12.88,27.23
	c-2.49,3.37-6.88,7.32-11.27,11.71c-4.39,4.39-9.37,4.83-12.3,5.27c-2.93,0.44-11.71,0.73-14.49,0.88
	c-2.78,0.15-11.71-0.73-12.74-1.32c-1.02-0.59-14.64-6.44-18.15-7.76c-3.51-1.32-5.56-3.81-8.2-5.71
	c-2.64-1.9-10.69-7.47-16.1-10.39c-5.42-2.93-19.91-11.42-31.04-13.03c-11.13-1.61-19.33,1.46-22.84,6.59
	c-3.51,5.12-5.27,12.15-2.64,16.4c4.89,7.87,31.33,22.84,32.35,26.35c1.02,3.51,11.71,11.42,15.96,14.49
	c4.25,3.07,13.47,11.71,18.74,16.84c5.27,5.12,21.08,20.35,23.57,21.52s19.62,10.1,22.55,11.13c7.77,2.72,18,10.7,20.79,12.44
	c7.03,4.39,24.16,9.96,25.77,11.42c1.61,1.46,10.54,10.98,16.25,19.62c5.71,8.64,10.39,16.84,12.74,21.67
	c2.34,4.83,3.95,9.22,8.05,16.69s7.91,12.88,9.66,16.4 M198.91,145.3c-1.32,6.15-3.81,10.54-4.98,12.3s-7.47,7.32-9.08,7.91
	c-1.61,0.59-5.27,4.39-6.3,6.73c-1.02,2.34-3.66,4.83-5.86,6.3 M149.81,141.22c2.54-1.49,4.05-3.12,5.64-4.43 M138,113.38
	c-0.29,0.59-1.34,2.5-2.78,3.51 M116.63,98.45c-0.59,1.17-0.31,2.66-1.26,4.26 M160.11,128.02c-1.46,0.73-4.39,1.46-4.39,1.46
	 M152.5,101.08c-1.9,1.46-4.83,3.37-6.88,5.71 M118.68,82.64c-0.29,1.61-0.44,2.78-1.02,3.95 M163.19,80
	c-0.88,2.93-6.15,9.08-8.93,11.57 M122.93,64.34c-0.29,1.76-0.73,2.49-1.17,3.51 M75.54,84.34c-1.52,4.59-1.37,8.98,5.07,12.64
	c6.44,3.66,17.57,5.27,22.69,6c5.12,0.73,12.15-0.29,12.15-0.29c3.2,4.36,15.66,14.5,19.76,14.2c0.3,16.02,11.32,22.3,14.79,24.45
	c0,0,2.05,17.57,3.81,22.84c1.76,5.27,5.27,21.96,12.74,21.67 M69.69,60.31c-5.91,1.1-8.4,5.64-8.54,9c-0.15,3.37,1.02,7.03,6,10.69
	s17.07,8.02,27.38,9.66c9.65,1.54,21.08,0.59,21.08,0.59c1.45,3.05,4.86,6.82,12.74,10.54c6.84,3.23,12.16,5.98,17.42,6.15
	c-1.24,8.25,4.15,17.6,9.96,22.55c0,0-2.64,13.03,6.3,25.77 M174.75,110.74c-1.76,0.88-3.07,1.76-5.27,2.49 M181.63,105.04
	c-1.17,1.61-2.64,2.78-3.95,3.81 M91.32,43.1c-5.87,0.01-9.97,1.04-14.36,3.23c-4.39,2.2-8.34,5.71-7.91,11.13
	c0.44,5.42,4.98,9.52,10.1,11.86c5.12,2.34,14.99,5.83,22.55,7.03c7.69,1.22,17.56,0.39,20.2-1.32c0.05,2.09,4.09,4.52,8.93,7.76
	c5.96,4,16.62,9.3,23.42,8.78c0.01,2.15-0.02,8.81,3.81,13.47c3.2,3.9,7.9,7.89,11.42,8.2c0,0-2.2,9.52,1.46,16.84
	c3.66,7.32,8.34,12.3,11.57,14.49 M194.81,102.4c3.66,0.2,7.61,0.29,10.54-1.61c2.93-1.9,7.03-6.3,8.34-10.39 M166.21,73.97
	c0.18,4.25,7.96,18.04,8.84,19.65s4.98,9.22,10.39,9.96c5.42,0.73,5.71,0.15,5.71,0.15 M138.98,59.62c1.66,4.28,8.69,7.5,11.32,9.55
	c2.64,2.05,12,4.98,15.52,4.83s9.66-3.95,12.44-8.49c2.78-4.54,3.51-5.71,3.95-7.61 M146.93,40.03c0.29,4.25-0.73,11.42-3.95,15.37
	 M356.52,352.39c-5.8-7.66-9.94-12.84-12.22-16.15s-4.97-8.7-9.32-13.66c-4.35-4.97-13.04-13.46-15.53-17.39
	c-2.48-3.93-8.7-11.8-10.35-14.7c-1.66-2.9-6.42-11.18-10.35-14.49c-3.93-3.31-5.8-6.83-8.07-11.39
	c-2.28-4.55-6.63-15.11-9.11-20.91c-2.48-5.8-7.66-22.57-8.9-26.92c-1.24-4.35-5.59-19.88-6.83-27.95s-3.11-16.98-4.14-26.09
	c-1.04-9.11-2.69-28.16-4.76-32.51c-2.07-4.35-4.7-9.73-7.81-13.87c-3.11-4.14-8.96-11.18-11.66-15.11
	c-2.69-3.93-5.65-10.39-7.93-12.46c-2.28-2.07-5.48-8.25-6.73-10.53s-7.17-12.27-9.86-14.96c-2.69-2.69-3.85-4.91-4.68-6.98
	c-0.83-2.07-7.66-10.77-10.97-12.84c-3.31-2.07-11.59-4.76-14.49-6.42c-2.9-1.66-20.53-6.3-22.36-7.45
	c-1.61-1.02-11.59-3.93-15.74-4.35c-4.14-0.41-17.81-0.21-17.81-0.21s-22.57,0-28.78,2.28c-6.21,2.28-9.73,10.97-6.83,15.74
	s10.35,8.9,13.25,10.56s10.15,6.63,23.4,6.83c7.4,0.12,10.62-0.37,12.42-1.45"/>
<path class="st0" d="z"/>
</svg>
