<?xml version="1.0" encoding="utf-8"?>
<!-- Generator: Adobe Illustrator 29.5.0, SVG Export Plug-In . SVG Version: 9.03 Build 0)  -->
<svg version="1.0" id="Layer_1" xmlns:svg="http://www.w3.org/2000/svg"
	 xmlns="http://www.w3.org/2000/svg" xmlns:xlink="http://www.w3.org/1999/xlink" x="0px" y="0px" viewBox="0 0 400 400"
	 style="enable-background:new 0 0 400 400;" xml:space="preserve">
<style type="text/css">
	.st0{fill:none;}
	.st1{fill:none;stroke:#000000;stroke-width:1.8;stroke-linecap:round;}
	.st2{fill:none;stroke:#000000;stroke-width:2;stroke-linecap:round;stroke-linejoin:round;}
</style>
<path class="st0" d="z"/>
<path class="st0" d="z"/>
<g>
	<path class="st1" d="M223.37,137.92l4.87,1.1 M175.37,287.46c2.04,4.81,3.73,9.95,6.75,13.86c0.59,1.33,0.79,2.67,0.94,4
		 M156.38,264.93c3.28,3.38,13.04,33.01,17.71,49.71c8.78,31.31,13.68,60.37,13.68,60.37 M135.6,150.8
		c0.64,13.16-2.49,31.01-1.08,48.09c-0.07,5.11,0.95,17.16,2.79,29.04c1.84,11.87,2.44,21.62,9.21,27.97c1.9,3,7.7,13.12,17.5,7.76
		 M126.14,107.44c1.45-0.92,2.69-1.49,5.31-4.35 M122.04,74.49c-2.32,1.67-5.58,2.46-9.11,2.89 M143.56,89.81
		c-2.9-5.95-5.21-13.35-8.82-17.51c-0.98-3.71-2.81-6.16-4.57-8.7c0,0-5.54-13.35-6.84-16.79c-2.3-4.7-8.05-14.83-9.79-17.42
		c-6.71-9.97-16.25-0.39-17.39,3.44c-0.89,2.97-0.66,14.66,0.21,18.68c3.18,14.66,8.46,18.54,11.73,26.65
		c1.94,10.98,8.53,21.51,12.97,30.39c3.93,9.66,8.28,21.03,11.61,25.29 M148.71,154.01c-2.25,1.54-3.74,1.46-6.17,1.53
		 M155.41,94.18c0,0-6.57-3.53-10.22-4.11c-2.94-0.47-5.85-0.97-8.48,0.43c-1.66,0.89-3.03,2.44-3.81,4.15
		c-1.2,2.67-1.85,11.85-1.9,17.82c-0.07,8.45,0.95,16.91,2.25,25.26c0.89,5.72,1.44,12.72,3.89,16.53
		c1.09,1.69,7.17,6.44,11.16,8.91c3.61,2.24,8.15,7.83,8.15,7.83 M163.6,151.79c2.27-0.68,6.4-1.61,8.49-3.91 M178.75,85.63
		c0,0-9.17-3.57-13.17-2.6c-3.83,0.92-5.87,4.45-8.29,7.55c-1.13,1.45-1.9,3.23-2.22,5.03c-0.59,3.26,0.14,6.61,0.15,9.92
		c0.01,12.06-2.7,24.12-1.63,36.13c0.34,3.79,0.53,7.96,2.67,11.11c2.64,3.9,7.82,5.26,11.55,8.14c3.32,2.57,5.93,6.15,9.63,8.14
		c1.22,0.66,4,1.18,4,1.18c1.25,2.31,2.96,2.82,4.59,3.62 M217.77,118.85c-0.04,3.04,1.01,6.05,4.58,3.82 M237.69,115.75
		L237.69,115.75c-15.35,4.19-13.49,5.09-18.49,11.93 M214.15,94.72c0,0,5.02,24.04,3.26,27.39c-0.55,1.04-1.96,1.44-3.11,1.63
		c-1.63,0.27-4.9-0.76-4.9-0.76 M205.78,120.18c4.73,3.71,12.84,9.34,10.67,13.03c4.72,3.81,5.31,14.89,4.44,18.68 M189.13,132.24
		c1.31-1.29,3.34-3.96,6.35-3.22 M263.24,104.31c-15.4-11.92-26.73-15.66-30.19-17.27c-10.82-6.33-23.28-14.08-34.92-16.71
		c-4.19-0.95-9.64-0.68-13,2c-3.74,2.98-6.97,12.73-6.77,17.09c0.72,16.15,2.24,31.64,3.77,45.95c0.47,4.36,0.59,4.59,1.55,6.66
		c0.78,1.68,0.77,2.51,3.33,4.44c5.6,4.22,11.6,7.86,16.1,13.74 M176.12,182.03c0,0-3.29,4.33-3.77,6.91 M176.75,223.62
		c0.52,2.21,1.54,4.31,2.67,6.28 M193.23,246.23c9.26,9.09,28.27,5.04,28.1,4.24 M310.42,111.38c-7.03,3.45-14.26,6.65-19.91,11.82
		c-0.12,0.94-0.34,1.91,0.11,2.74c0.53,2.61,3.44,2.32,5.48,3.1 M296.2,368.35c-1.55-2.89-13.66-24.14-14.37-26.77
		c-0.77-2.84-5.75-10.39-9.8-17.81c-3.69-6.76-7.9-13.26-11.14-20.25c-1.92-5.6-8.19-17.48-11.77-30.77
		c-1.35-5-4.24-21.75-4.24-26.06c0-14.25,3.89-20.84,6.17-24.6c1.62-2.68,3.88-6.14,5.6-8.83c2.52-3.93,4.56-8.15,7.06-12.09
		c2.18-3.43,5.27-6.33,6.91-10.05c2.86-6.52,3.91-15,4.07-20.41c0.2-6.85,1.62-13.8,3.94-20.25c1.3-3.62,3.3-7.01,5.65-10.05
		c3.42-4.42,12.09-11.62,12.09-11.62l2.95-1.67c0,0,13.14-8.68,18.87-14.03c1.27-1.19,2.84-2.29,3.45-3.92
		c0.96-2.55,1.24-5.74,0-8.16c-1.85-3.6-6.12-5.59-9.89-7.06c-4.72-1.84-10.02-2.22-15.07-1.88c-7.99,0.53-15.86,3.11-23.23,6.23
		c-4.28,1.81-7.95,4.59-11.93,7.11c-3.54,3.06-6.33,6.95-8.95,10.83c-3.39,5.03-8.63,16.01-8.63,16.01
		c-10.27,3.56-13.06,10.27-17.11,15.38l-6.46,4.62l-7.51,5.58c-2.3,2.56-6.27,2.07-9.73,2.35c-0.38,2.55-1.44,4.43-2.98,5.81
		l-14.13,7.85c0,0-2.41,2.87-4.03,3.71c-1.87,0.96-6.17,1.32-6.17,1.32c-4.87-0.05-7.26-3.09-10.83-4.71
		c-4.53-1.77-8.8-3.85-14.44-4.24c-3.2-0.1-6.92,0.68-10.99,2.04"/>
	<g>
		<g>
			<line class="st2" x1="83.52" y1="155" x2="83.52" y2="236.38"/>
			<g>
				<polygon points="89.5,234.63 83.52,245 77.54,234.63 				"/>
			</g>
		</g>
	</g>
</g>
</svg>
