<?xml version="1.0" encoding="UTF-8" standalone="no"?>
<svg xmlns:ffdec="https://www.free-decompiler.com/flash" xmlns:xlink="http://www.w3.org/1999/xlink" ffdec:objectType="frame" height="96.65px" width="71.4px" xmlns="http://www.w3.org/2000/svg">
  <g transform="matrix(1.0, 0.0, 0.0, 1.0, 36.1, 96.65)">
    <use ffdec:characterId="5" height="24.95" transform="matrix(1.0, 0.0, 0.0, 1.0, -11.7, -27.9)" width="18.75" xlink:href="#shape0"/>
    <use ffdec:characterId="6" height="24.15" transform="matrix(1.0, 0.0, 0.0, 1.0, -7.0, -27.95)" width="20.35" xlink:href="#shape1"/>
    <use ffdec:characterId="7" height="83.1" transform="matrix(1.0, 0.0, 0.0, 1.0, -35.7, -94.5)" width="70.6" xlink:href="#shape2"/>
  </g>
  <defs>
    <g id="shape0" transform="matrix(1.0, 0.0, 0.0, 1.0, 20.75, 30.2)">
      <path d="M-13.5 -26.35 Q-12.35 -28.8 -10.05 -29.8 -7.35 -30.75 -5.05 -29.35 -2.55 -28.0 -2.15 -25.25 -1.6 -22.6 -3.2 -20.4 L-13.5 -5.25 -20.75 -9.4 -13.5 -26.35" fill="#6fc4a9" fill-rule="evenodd" stroke="none"/>
    </g>
    <g id="shape1" transform="matrix(1.0, 0.0, 0.0, 1.0, -2.1, 30.25)">
      <path d="M13.25 -27.05 L22.45 -11.1 15.75 -6.1 3.75 -19.95 Q1.9 -21.95 2.15 -24.6 2.3 -27.4 4.55 -29.0 6.7 -30.7 9.45 -30.05 11.85 -29.35 13.25 -27.05" fill="#6fc4a9" fill-rule="evenodd" stroke="none"/>
    </g>
    <g id="shape2" transform="matrix(1.0, 0.0, 0.0, 1.0, 35.3, 96.65)">
      <path d="M18.9 -35.5 L14.3 -43.5 14.6 -43.55 Q27.2 -45.4 33.2 -34.4 33.7 -33.5 33.45 -32.55 33.15 -31.55 32.25 -31.05 31.35 -30.5 30.3 -30.75 29.35 -31.05 28.8 -32.0 24.85 -39.2 18.9 -35.5" fill="#6fc4a9" fill-rule="evenodd" stroke="none"/>
      <path d="M-32.1 -30.75 Q-33.05 -30.5 -33.95 -31.05 -34.9 -31.55 -35.2 -32.55 -35.45 -33.5 -35.0 -34.4 -28.95 -45.4 -16.4 -43.55 L-16.05 -43.5 -20.65 -35.5 Q-26.65 -39.2 -30.6 -32.0 -31.1 -31.05 -32.1 -30.75" fill="#6fc4a9" fill-rule="evenodd" stroke="none"/>
      <path d="M18.8 -81.5 Q24.8 -74.9 24.35 -66.05 L22.45 -25.7 Q22.2 -20.25 15.7 -16.7 9.2 -13.2 0.3 -13.6 -8.6 -14.0 -14.7 -18.1 -20.8 -22.25 -20.55 -27.7 L-18.65 -68.05 Q-18.2 -76.9 -11.6 -82.9 -5.0 -88.9 3.9 -88.5 12.8 -88.1 18.8 -81.5" fill="#6fc4a9" fill-rule="evenodd" stroke="none"/>
      <path d="M11.2 -55.2 Q11.3 -57.2 12.8 -58.6 14.35 -60.0 16.45 -59.9 18.45 -59.8 19.85 -58.3 21.25 -56.7 21.15 -54.7 21.05 -52.7 19.5 -51.4 18.0 -49.95 16.0 -50.05 13.9 -50.15 12.45 -51.7 11.1 -53.2 11.2 -55.2 M1.8 -52.2 Q0.3 -50.8 -1.7 -50.9 -3.8 -51.0 -5.25 -52.55 -6.6 -54.0 -6.5 -56.0 -6.4 -58.0 -4.9 -59.45 -3.35 -60.85 -1.25 -60.75 0.75 -60.65 2.15 -59.1 3.55 -57.55 3.45 -55.55 3.35 -53.55 1.8 -52.2 M10.65 -45.85 Q11.6 -46.55 12.05 -47.4 L12.55 -47.95 13.35 -47.9 Q13.7 -47.8 13.95 -47.4 14.1 -46.95 13.9 -46.6 13.25 -45.25 11.85 -44.2 9.65 -42.65 6.7 -42.8 3.7 -42.95 1.7 -44.7 0.25 -45.9 -0.1 -47.35 L0.05 -48.1 0.6 -48.55 1.45 -48.4 1.9 -47.85 Q2.15 -46.95 3.0 -46.2 4.5 -44.9 6.8 -44.8 9.0 -44.7 10.65 -45.85" fill="#347e67" fill-rule="evenodd" stroke="none"/>
      <path d="M8.3 -80.8 Q5.4 -78.2 5.2 -74.3 5.0 -70.45 7.7 -67.55 10.3 -64.7 14.2 -64.5 18.1 -64.3 21.0 -66.95 23.85 -69.55 24.05 -73.4 24.25 -77.3 21.6 -80.2 19.0 -83.1 15.1 -83.3 11.2 -83.5 8.3 -80.8 M23.2 -82.55 Q30.8 -74.15 30.25 -62.8 29.7 -51.35 21.35 -43.6 12.8 -35.95 1.4 -36.5 -10.0 -37.05 -17.65 -45.45 -25.4 -53.95 -24.85 -65.4 -24.3 -76.75 -15.8 -84.4 -7.4 -92.15 4.0 -91.6 15.4 -91.05 23.2 -82.55" fill="#ffffff" fill-opacity="0.2" fill-rule="evenodd" stroke="none"/>
      <path d="M8.3 -80.8 Q11.2 -83.5 15.1 -83.3 19.0 -83.1 21.6 -80.2 24.25 -77.3 24.05 -73.4 23.85 -69.55 21.0 -66.95 18.1 -64.3 14.2 -64.5 10.3 -64.7 7.7 -67.55 5.0 -70.45 5.2 -74.3 5.4 -78.2 8.3 -80.8" fill="#ffffff" fill-opacity="0.3019608" fill-rule="evenodd" stroke="none"/>
      <path d="M23.2 -82.55 Q15.4 -91.05 4.0 -91.6 -7.4 -92.15 -15.8 -84.4 -24.3 -76.75 -24.85 -65.4 -25.4 -53.95 -17.65 -45.45 -10.0 -37.05 1.4 -36.5 12.8 -35.95 21.35 -43.6 29.7 -51.35 30.25 -62.8 30.8 -74.15 23.2 -82.55 M4.25 -96.6 Q17.75 -95.95 26.85 -85.95 35.9 -76.0 35.25 -62.55 34.6 -49.0 24.65 -39.9 14.65 -30.85 1.15 -31.5 -12.35 -32.15 -21.35 -42.1 -30.5 -52.1 -29.85 -65.65 -29.2 -79.1 -19.15 -88.15 -9.25 -97.25 4.25 -96.6" fill="#ffffff" fill-rule="evenodd" stroke="none"/>
      <path d="M5.1 -26.25 Q6.75 -26.15 7.85 -24.95 8.95 -23.75 8.9 -22.1 8.8 -20.45 7.6 -19.35 6.4 -18.25 4.75 -18.35 3.1 -18.45 2.0 -19.65 0.9 -20.85 1.0 -22.5 1.05 -24.15 2.25 -25.25 3.45 -26.35 5.1 -26.25 M17.15 -32.4 Q18.35 -32.35 19.15 -31.45 19.95 -30.55 19.9 -29.35 19.85 -28.15 18.95 -27.35 18.05 -26.55 16.85 -26.6 15.65 -26.65 14.85 -27.55 14.05 -28.45 14.1 -29.65 14.15 -30.85 15.05 -31.65 15.95 -32.45 17.15 -32.4 M15.9 -22.9 Q15.85 -22.05 15.2 -21.45 14.6 -20.9 13.75 -20.95 12.9 -20.95 12.3 -21.6 11.75 -22.25 11.8 -23.1 11.85 -23.95 12.45 -24.5 13.1 -25.05 13.95 -25.05 14.8 -25.0 15.35 -24.35 15.95 -23.75 15.9 -22.9" fill="#8bcfba" fill-opacity="0.5019608" fill-rule="evenodd" stroke="none"/>
    </g>
  </defs>
</svg>
